<svg width="33" height="33" viewBox="0 0 33 33" fill="none" xmlns="http://www.w3.org/2000/svg">
<path fill-rule="evenodd" clip-rule="evenodd" d="M16.0394 12.8041C17.3163 13.1297 19.3603 13.9037 19.8962 16.6898C20.4495 19.5663 21.9819 22.4834 23.4064 25.0784C24.309 26.7226 23.7037 28.9246 23.1228 29.93C22.5456 31.0877 20.314 32.9075 16.0055 30.9254C15.2595 30.5822 14.4148 30.0624 13.6349 29.5826C12.8098 29.0749 12.0573 28.6119 11.5714 28.4501C11.0752 28.3279 10.1867 28.3225 9.21178 28.3165C8.29614 28.3109 7.30431 28.3048 6.48975 28.2011C1.78512 27.6024 0.85493 24.8772 0.977913 23.5895C1.01726 22.429 1.66916 20.2404 3.30513 19.3231C5.88729 17.8753 8.73138 16.2113 10.7233 14.0636C12.646 11.9905 14.7818 12.4057 16.0394 12.8041Z" fill="#FC4646"/>
<path d="M19.8962 16.6898L20.0435 16.6614L19.8962 16.6898ZM16.0394 12.8041L15.994 12.9473L16.0023 12.9494L16.0394 12.8041ZM23.4064 25.0784L23.2749 25.1506L23.4064 25.0784ZM23.1228 29.93L22.9927 29.8548L22.9886 29.8631L23.1228 29.93ZM16.0055 30.9254L16.0682 30.7891L16.0055 30.9254ZM13.6349 29.5826L13.7135 29.4548L13.7135 29.4548L13.6349 29.5826ZM11.5714 28.4501L11.6189 28.3073L11.6072 28.3044L11.5714 28.4501ZM9.21178 28.3165L9.2127 28.1665L9.2127 28.1665L9.21178 28.3165ZM6.48975 28.2011L6.50869 28.0523L6.48975 28.2011ZM0.977913 23.5895L1.12751 23.6038L1.12783 23.5946L0.977913 23.5895ZM3.30513 19.3231L3.23177 19.1923L3.30513 19.3231ZM10.7233 14.0636L10.8333 14.1656L10.7233 14.0636ZM20.0435 16.6614C19.7687 15.2325 19.1041 14.311 18.3387 13.7065C17.5768 13.1049 16.7227 12.8235 16.0764 12.6587L16.0023 12.9494C16.6329 13.1102 17.4394 13.3787 18.1527 13.942C18.8625 14.5024 19.4879 15.3609 19.7489 16.7181L20.0435 16.6614ZM23.5379 25.0063C22.1121 22.4088 20.5917 19.5114 20.0435 16.6614L19.7489 16.7181C20.3074 19.6211 21.8517 22.5579 23.2749 25.1506L23.5379 25.0063ZM23.2527 30.005C23.5535 29.4844 23.8562 28.6633 23.9697 27.7625C24.0832 26.8617 24.0094 25.8652 23.5379 25.0063L23.2749 25.1506C23.7059 25.9358 23.7808 26.8624 23.6721 27.725C23.5634 28.5875 23.273 29.3701 22.9929 29.855L23.2527 30.005ZM15.9428 31.0617C18.1222 32.0643 19.7953 32.1135 21.0066 31.7488C22.2152 31.3848 22.9501 30.6125 23.2571 29.9969L22.9886 29.8631C22.7183 30.4052 22.0488 31.1216 20.9201 31.4615C19.7942 31.8005 18.1973 31.7686 16.0682 30.7891L15.9428 31.0617ZM13.5563 29.7103C14.3339 30.1888 15.1869 30.714 15.9428 31.0617L16.0682 30.7891C15.3321 30.4505 14.4956 29.9361 13.7135 29.4548L13.5563 29.7103ZM11.524 28.5924C11.7522 28.6684 12.0511 28.8183 12.402 29.0171C12.7512 29.215 13.1431 29.4561 13.5563 29.7103L13.7135 29.4548C13.3016 29.2014 12.9047 28.9572 12.5499 28.7561C12.1968 28.5561 11.8765 28.3936 11.6188 28.3078L11.524 28.5924ZM11.6072 28.3044C11.3437 28.2395 10.9847 28.2073 10.5775 28.1899C10.1682 28.1723 9.6994 28.1695 9.2127 28.1665L9.21086 28.4665C9.69909 28.4695 10.162 28.4723 10.5647 28.4896C10.9696 28.5069 11.303 28.5385 11.5355 28.5957L11.6072 28.3044ZM9.2127 28.1665C8.29446 28.1608 7.31244 28.1546 6.50869 28.0523L6.47082 28.3499C7.29617 28.4549 8.29782 28.4609 9.21086 28.4665L9.2127 28.1665ZM6.50869 28.0523C4.18386 27.7564 2.81203 26.9383 2.03619 26.0547C1.25845 25.1689 1.06964 24.2068 1.12723 23.6037L0.828592 23.5752C0.763199 24.2599 0.978001 25.3042 1.81076 26.2526C2.64543 27.2032 4.09102 28.047 6.47082 28.3499L6.50869 28.0523ZM1.12783 23.5946C1.1468 23.035 1.31469 22.2173 1.67898 21.4279C2.04331 20.6385 2.59723 19.892 3.37849 19.4539L3.23177 19.1923C2.37707 19.6715 1.78705 20.4779 1.40659 21.3022C1.02611 22.1266 0.848371 22.9835 0.827999 23.5844L1.12783 23.5946ZM3.37849 19.4539C5.95829 18.0075 8.82299 16.3331 10.8333 14.1656L10.6133 13.9616C8.63978 16.0895 5.8163 17.7431 3.23177 19.1923L3.37849 19.4539ZM10.8333 14.1656C11.7699 13.1557 12.7514 12.7577 13.6477 12.6561C14.5484 12.554 15.3732 12.7504 15.9941 12.9471L16.0847 12.6611C15.448 12.4594 14.5761 12.249 13.6139 12.358C12.6472 12.4675 11.5994 12.8984 10.6133 13.9616L10.8333 14.1656Z" fill="black"/>
<path d="M4.76775 6.00561C5.6377 5.99041 6.45545 6.52227 7.06967 7.43799C7.68297 8.35254 8.08014 9.63366 8.10529 11.0629C8.1304 12.4921 7.77854 13.7855 7.19783 14.721C6.61619 15.658 5.8178 16.2191 4.94775 16.2345C4.07756 16.2498 3.25915 15.7172 2.64483 14.8012C2.03161 13.8867 1.63539 12.6063 1.6102 11.1772C1.58505 9.74796 1.93592 8.45368 2.51666 7.51811C3.09836 6.58113 3.89763 6.02092 4.76775 6.00561Z" fill="#FC4646" stroke="black" stroke-width="0.3"/>
<path d="M13.9271 0.649486C14.7877 0.777792 15.5066 1.43709 15.9616 2.44148C16.4159 3.44456 16.5966 4.7736 16.386 6.18747C16.1753 7.60123 15.6152 8.81907 14.8883 9.64615C14.1603 10.4745 13.2804 10.8964 12.4197 10.7683C11.5589 10.6401 10.8394 9.97995 10.3843 8.97519C9.93012 7.97218 9.75023 6.64403 9.96079 5.23031C10.1714 3.81645 10.7307 2.59764 11.4576 1.77052C12.1857 0.942153 13.0663 0.52126 13.9271 0.649486Z" fill="#FC4646" stroke="black" stroke-width="0.3"/>
<path d="M29.8012 13.1735C29.0712 12.7001 28.0959 12.7186 27.0901 13.1704C26.0856 13.6218 25.0706 14.4985 24.2928 15.6978C23.5151 16.8971 23.129 18.1808 23.1265 19.2819C23.1241 20.3847 23.5045 21.2833 24.2346 21.7569C24.9648 22.2304 25.941 22.2118 26.9471 21.7597C27.9514 21.3083 28.9653 20.4317 29.743 19.2325C30.5208 18.0332 30.9082 16.7494 30.9106 15.6482C30.913 14.5453 30.5314 13.647 29.8012 13.1735Z" fill="#FC4646" stroke="black" stroke-width="0.3"/>
<path d="M24.8641 3.78076C24.0661 3.43413 23.1071 3.61298 22.1895 4.22432C21.2731 4.83495 20.4164 5.86692 19.8467 7.17799C19.2772 8.48898 19.1078 9.81872 19.2868 10.9052C19.4661 11.9933 19.9893 12.817 20.7874 13.1639C21.5856 13.5107 22.5455 13.3314 23.4633 12.7198C24.3796 12.1092 25.2352 11.0775 25.8048 9.76663C26.3744 8.45556 26.545 7.12545 26.366 6.03894C26.1867 4.95075 25.6623 4.12754 24.8641 3.78076Z" fill="#FC4646" stroke="black" stroke-width="0.3"/>
</svg>
