<svg width="38" height="22" viewBox="0 0 38 22" fill="none" xmlns="http://www.w3.org/2000/svg">
<mask id="path-1-inside-1_499_3653" fill="white">
<path fill-rule="evenodd" clip-rule="evenodd" d="M12.1765 0.837891C6.33275 0.837891 1.59545 5.57519 1.59545 11.4189C1.59545 12.5919 1.78629 13.7202 2.13863 14.7746C0.980501 15.4437 0.201172 16.6953 0.201172 18.1289C0.201172 20.2669 1.93432 22 4.07226 22C5.24565 22 6.29711 21.4779 7.00702 20.6534C8.53569 21.511 10.299 22 12.1765 22H26.8005C32.6442 22 37.3815 17.2627 37.3815 11.4189C37.3815 5.57519 32.6442 0.837891 26.8005 0.837891H12.1765Z"/>
</mask>
<path fill-rule="evenodd" clip-rule="evenodd" d="M12.1765 0.837891C6.33275 0.837891 1.59545 5.57519 1.59545 11.4189C1.59545 12.5919 1.78629 13.7202 2.13863 14.7746C0.980501 15.4437 0.201172 16.6953 0.201172 18.1289C0.201172 20.2669 1.93432 22 4.07226 22C5.24565 22 6.29711 21.4779 7.00702 20.6534C8.53569 21.511 10.299 22 12.1765 22H26.8005C32.6442 22 37.3815 17.2627 37.3815 11.4189C37.3815 5.57519 32.6442 0.837891 26.8005 0.837891H12.1765Z" fill="#FFEEEE"/>
<path d="M2.13863 14.7746L2.32723 15.1011L2.5938 14.9471L2.49623 14.6551L2.13863 14.7746ZM7.00702 20.6534L7.19149 20.3246L6.92252 20.1737L6.72129 20.4074L7.00702 20.6534ZM1.9725 11.4189C1.9725 5.78343 6.54099 1.21494 12.1765 1.21494V0.460846C6.12452 0.460846 1.21841 5.36695 1.21841 11.4189H1.9725ZM2.49623 14.6551C2.15661 13.6387 1.9725 12.5507 1.9725 11.4189H1.21841C1.21841 12.633 1.41598 13.8017 1.78102 14.8941L2.49623 14.6551ZM0.578216 18.1289C0.578216 16.8354 1.28093 15.7055 2.32723 15.1011L1.95002 14.4481C0.680073 15.1818 -0.175873 16.5552 -0.175873 18.1289H0.578216ZM4.07226 21.623C2.14255 21.623 0.578216 20.0586 0.578216 18.1289H-0.175873C-0.175873 20.4751 1.72608 22.377 4.07226 22.377V21.623ZM6.72129 20.4074C6.07995 21.1523 5.13128 21.623 4.07226 21.623V22.377C5.36002 22.377 6.51426 21.8036 7.29275 20.8994L6.72129 20.4074ZM12.1765 21.623C10.3652 21.623 8.66528 21.1514 7.19149 20.3246L6.82254 20.9822C8.40609 21.8706 10.2327 22.377 12.1765 22.377V21.623ZM26.8005 21.623H12.1765V22.377H26.8005V21.623ZM37.0045 11.4189C37.0045 17.0545 32.436 21.623 26.8005 21.623V22.377C32.8525 22.377 37.7586 17.4709 37.7586 11.4189H37.0045ZM26.8005 1.21494C32.436 1.21494 37.0045 5.78343 37.0045 11.4189H37.7586C37.7586 5.36695 32.8525 0.460846 26.8005 0.460846V1.21494ZM12.1765 1.21494H26.8005V0.460846H12.1765V1.21494Z" fill="black" mask="url(#path-1-inside-1_499_3653)"/>
<circle cx="20.164" cy="11.4189" r="2.05267" fill="#FF6B6B" stroke="black" stroke-width="0.377044"/>
<circle cx="27.1055" cy="11.4189" r="2.05267" fill="#FC4646" stroke="black" stroke-width="0.377044"/>
<circle cx="13.2226" cy="11.4189" r="2.05267" fill="#FFADAD" stroke="black" stroke-width="0.377044"/>
</svg>
