<svg width="36" height="36" viewBox="0 0 36 36" fill="none" xmlns="http://www.w3.org/2000/svg">
<path d="M35.1429 19.0937L11.3177 32.1211C8.48296 33.6708 4.92879 32.6297 3.37882 29.795L3.01057 29.1216C1.46061 26.2869 2.50216 22.7329 5.33665 21.1827L29.1619 8.15528L35.1429 19.0937Z" fill="#FFEEEE"/>
<path d="M35.1429 19.0937L11.3177 32.1211C8.48296 33.6708 4.92879 32.6297 3.37882 29.795L3.01057 29.1216C1.46061 26.2869 2.50216 22.7329 5.33665 21.1827L29.1619 8.15528L35.1429 19.0937Z" stroke="black" stroke-width="0.3"/>
<path d="M35.1429 19.0937L11.3177 32.1211C8.48296 33.6708 4.92879 32.6297 3.37882 29.795L3.01057 29.1216C1.46061 26.2869 2.50216 22.7329 5.33665 21.1827L29.1619 8.15528L35.1429 19.0937Z" stroke="black" stroke-width="0.3"/>
<path d="M27.8634 6.6132L13.9084 29.9072C12.2479 32.6785 8.65558 33.5794 5.88413 31.9191L5.22567 31.5246C2.45423 29.8643 1.55376 26.2719 3.21386 23.5003L17.1689 0.206299L27.8634 6.6132Z" fill="#FFADAD"/>
<path d="M27.8634 6.6132L13.9084 29.9072C12.2479 32.6785 8.65558 33.5794 5.88413 31.9191L5.22567 31.5246C2.45423 29.8643 1.55376 26.2719 3.21386 23.5003L17.1689 0.206299L27.8634 6.6132Z" stroke="black" stroke-width="0.3"/>
<path d="M27.8634 6.6132L13.9084 29.9072C12.2479 32.6785 8.65558 33.5794 5.88413 31.9191L5.22567 31.5246C2.45423 29.8643 1.55376 26.2719 3.21386 23.5003L17.1689 0.206299L27.8634 6.6132Z" stroke="black" stroke-width="0.3"/>
<path d="M14.7666 0.150391V27.3047C14.7664 30.5354 12.1477 33.1543 8.91699 33.1543H8.14941C4.91869 33.1543 2.30003 30.5354 2.2998 27.3047V0.150391H14.7666Z" fill="#FC4646"/>
<path d="M14.7666 0.150391V27.3047C14.7664 30.5354 12.1477 33.1543 8.91699 33.1543H8.14941C4.91869 33.1543 2.30003 30.5354 2.2998 27.3047V0.150391H14.7666Z" stroke="black" stroke-width="0.3"/>
<path d="M14.7666 0.150391V27.3047C14.7664 30.5354 12.1477 33.1543 8.91699 33.1543H8.14941C4.91869 33.1543 2.30003 30.5354 2.2998 27.3047V0.150391H14.7666Z" stroke="black" stroke-width="0.3"/>
<circle cx="8.53275" cy="28.8272" r="1.30677" fill="white" stroke="black" stroke-width="0.2"/>
</svg>
