<svg width="39" height="39" viewBox="0 0 39 39" fill="none" xmlns="http://www.w3.org/2000/svg">
<circle cx="19.2715" cy="19.2715" r="19.1215" fill="#FFEEEE" stroke="black" stroke-width="0.3"/>
<mask id="path-2-inside-1_499_3551" fill="white">
<path fill-rule="evenodd" clip-rule="evenodd" d="M21.3006 20.9881L29.3647 7.33682L17.2411 17.5547L21.3006 20.9881ZM17.2418 17.5555L9.17771 31.2068L21.3013 20.9889L17.2418 17.5555Z"/>
</mask>
<path fill-rule="evenodd" clip-rule="evenodd" d="M21.3006 20.9881L29.3647 7.33682L17.2411 17.5547L21.3006 20.9881ZM17.2418 17.5555L9.17771 31.2068L21.3013 20.9889L17.2418 17.5555Z" fill="#FC4646"/>
<path d="M29.3647 7.33682L29.623 7.4894L29.1714 7.10743L29.3647 7.33682ZM21.3006 20.9881L21.1069 21.2172L21.3782 21.4467L21.5589 21.1407L21.3006 20.9881ZM17.2411 17.5547L17.0478 17.3253L16.7761 17.5543L17.0474 17.7838L17.2411 17.5547ZM9.17771 31.2068L8.91941 31.0542L9.37104 31.4362L9.17771 31.2068ZM17.2418 17.5555L17.4355 17.3264L17.1642 17.097L16.9835 17.4029L17.2418 17.5555ZM21.3013 20.9889L21.4947 21.2183L21.7664 20.9893L21.4951 20.7598L21.3013 20.9889ZM29.1064 7.18424L21.0423 20.8355L21.5589 21.1407L29.623 7.4894L29.1064 7.18424ZM17.4344 17.7841L29.5581 7.56621L29.1714 7.10743L17.0478 17.3253L17.4344 17.7841ZM21.4944 20.7591L17.4348 17.3257L17.0474 17.7838L21.1069 21.2172L21.4944 20.7591ZM9.43601 31.3594L17.5001 17.7081L16.9835 17.4029L8.91941 31.0542L9.43601 31.3594ZM21.108 20.7595L8.98437 30.9774L9.37104 31.4362L21.4947 21.2183L21.108 20.7595ZM17.0481 17.7845L21.1076 21.2179L21.4951 20.7598L17.4355 17.3264L17.0481 17.7845Z" fill="black" mask="url(#path-2-inside-1_499_3551)"/>
<circle cx="19.2713" cy="19.2715" r="0.928613" transform="rotate(11.4241 19.2713 19.2715)" fill="#FFEAEA" stroke="black" stroke-width="0.2"/>
<rect x="18.9443" y="1.21191" width="0.655501" height="1.9352" fill="#FC4646"/>
<rect x="18.9443" y="1.21191" width="0.655501" height="1.9352" fill="#FC4646"/>
<rect x="18.9443" y="1.21191" width="0.655501" height="1.9352" fill="#FC4646"/>
<rect x="18.9443" y="35.396" width="0.655501" height="1.9352" fill="#FC4646"/>
<rect x="18.9443" y="35.396" width="0.655501" height="1.9352" fill="#FC4646"/>
<rect x="18.9443" y="35.396" width="0.655501" height="1.9352" fill="#FC4646"/>
<rect x="1.53906" y="19.5991" width="0.655501" height="1.9352" transform="rotate(-90 1.53906 19.5991)" fill="#FC4646"/>
<rect x="1.53906" y="19.5991" width="0.655501" height="1.9352" transform="rotate(-90 1.53906 19.5991)" fill="#FC4646"/>
<rect x="1.53906" y="19.5991" width="0.655501" height="1.9352" transform="rotate(-90 1.53906 19.5991)" fill="#FC4646"/>
<rect x="35.7227" y="19.5991" width="0.655501" height="1.9352" transform="rotate(-90 35.7227 19.5991)" fill="#FC4646"/>
<rect x="35.7227" y="19.5991" width="0.655501" height="1.9352" transform="rotate(-90 35.7227 19.5991)" fill="#FC4646"/>
<rect x="35.7227" y="19.5991" width="0.655501" height="1.9352" transform="rotate(-90 35.7227 19.5991)" fill="#FC4646"/>
</svg>
