<svg width="63" height="56" viewBox="0 0 63 56" fill="none" xmlns="http://www.w3.org/2000/svg">
<path d="M58.729 15.587L57.9427 15.7558C57.6166 15.8257 57.3424 15.4841 57.4571 15.171C58.2265 13.0715 58.6054 9.91865 58.704 8.45529C58.4242 9.18103 57.774 9.4934 57.4838 9.55887C54.2754 9.94243 56.2964 2.65239 57.936 3.33601C59.2477 3.8829 59.3143 4.95503 59.4399 5.55951C59.5654 6.16399 61.8687 6.17035 62.0511 7.19262C62.2117 8.09326 60.8432 8.15996 60.3708 8.08719C60.1505 10.2882 59.1845 14.0042 58.729 15.587Z" fill="#7B7B7B" stroke="black" stroke-width="0.239675" stroke-linecap="round"/>
<rect x="26.4907" y="49.1586" width="0.615223" height="1.08765" rx="0.307611" transform="rotate(-26.364 26.4907 49.1586)" fill="#FFADAD" stroke="black" stroke-width="0.239675"/>
<rect x="0.199416" y="19.7789" width="23.416" height="38.0684" rx="2.85" transform="rotate(-25.0611 0.199416 19.7789)" fill="#FFEEEE" stroke="black" stroke-width="0.3"/>
<rect x="6.16231" y="23.189" width="15.4999" height="15.4999" rx="0.85" transform="rotate(-25.0611 6.16231 23.189)" fill="#FC4646" stroke="black" stroke-width="0.3"/>
<rect x="15.2268" y="43.8453" width="1.14937" height="2.943" rx="0.574684" transform="rotate(-25.0611 15.2268 43.8453)" fill="#FFADAD" stroke="black" stroke-width="0.3"/>
<rect x="29.2033" y="37.3101" width="1.14937" height="2.943" rx="0.574684" transform="rotate(-25.0611 29.2033 37.3101)" fill="#FFADAD" stroke="black" stroke-width="0.3"/>
<rect x="17.7833" y="20.2913" width="1.14937" height="2.943" transform="rotate(-115.061 17.7833 20.2913)" fill="#FFEEEE" stroke="black" stroke-width="0.3"/>
<mask id="path-8-inside-1_499_3574" fill="white">
<path d="M18.4336 20.1538L17.8197 18.8409L20.0588 17.7939L20.6727 19.1068L18.4336 20.1538Z"/>
</mask>
<path d="M18.4336 20.1538L17.8197 18.8409L20.0588 17.7939L20.6727 19.1068L18.4336 20.1538Z" fill="#FFADAD"/>
<path d="M20.0588 17.7939L20.3306 17.6668L20.2035 17.395L19.9317 17.5221L20.0588 17.7939ZM20.6727 19.1068L20.7998 19.3785L21.0716 19.2515L20.9445 18.9797L20.6727 19.1068ZM17.9467 19.1126L20.1859 18.0656L19.9317 17.5221L17.6926 18.5691L17.9467 19.1126ZM19.787 17.9209L20.401 19.2338L20.9445 18.9797L20.3306 17.6668L19.787 17.9209ZM20.5457 18.835L18.3065 19.8821L18.5607 20.4256L20.7998 19.3785L20.5457 18.835Z" fill="black" mask="url(#path-8-inside-1_499_3574)"/>
<rect x="7.7541" y="18.4298" width="8.58441" height="0.993587" rx="0.496793" transform="rotate(-25.0611 7.7541 18.4298)" fill="#FFADAD" stroke="black" stroke-width="0.3"/>
<circle cx="23.3584" cy="41.6669" r="5.0265" transform="rotate(-25.0611 23.3584 41.6669)" fill="white" stroke="black" stroke-width="0.3"/>
<path d="M21.2285 37.1118L22.1247 39.0284" stroke="black" stroke-width="0.3" stroke-linecap="round"/>
<path d="M18.7793 43.8091L20.6959 42.9129" stroke="black" stroke-width="0.3" stroke-linecap="round"/>
<path d="M25.9551 40.4541L27.8717 39.5579" stroke="black" stroke-width="0.3" stroke-linecap="round"/>
<path d="M23.5801 44.6372L25.4967 43.741" stroke="black" stroke-width="0.3" stroke-linecap="round"/>
<path d="M24.9863 45.147L24.0901 43.2303" stroke="black" stroke-width="0.3" stroke-linecap="round"/>
<circle cx="13.495" cy="34.5737" r="0.909915" transform="rotate(-25.0611 13.495 34.5737)" fill="white" stroke="black" stroke-width="0.3"/>
<circle cx="22.4232" cy="30.5643" r="0.282124" transform="rotate(-25.0611 22.4232 30.5643)" fill="white" stroke="black" stroke-width="0.0930167"/>
<circle cx="23.4428" cy="30.0877" r="0.282124" transform="rotate(-25.0611 23.4428 30.0877)" fill="#FFD2D2" stroke="black" stroke-width="0.0930167"/>
<circle cx="24.4623" cy="29.6102" r="0.282124" transform="rotate(-25.0611 24.4623 29.6102)" fill="#FF8D8D" stroke="black" stroke-width="0.0930167"/>
<path d="M14.5889 33.4513L14.5428 33.3526L15.3585 32.9712L15.4046 33.0699L15.053 33.2343L15.5289 34.252L15.4179 34.3039L14.942 33.2862L14.5889 33.4513ZM16.2438 33.9383C16.0249 34.0407 15.79 33.9363 15.6704 33.6803C15.5499 33.4228 15.6197 33.1742 15.8386 33.0718C16.0576 32.9694 16.2916 33.076 16.412 33.3335C16.5317 33.5895 16.4628 33.8359 16.2438 33.9383ZM16.1999 33.8443C16.371 33.7642 16.393 33.5661 16.3072 33.3826C16.2214 33.1991 16.0545 33.0873 15.8833 33.1674C15.7106 33.2481 15.6894 33.4478 15.7752 33.6313C15.861 33.8148 16.0272 33.925 16.1999 33.8443ZM17.0958 33.5399C16.8768 33.6423 16.642 33.5379 16.5223 33.282C16.4019 33.0245 16.4716 32.7758 16.6906 32.6734C16.9095 32.571 17.1435 32.6777 17.2639 32.9352C17.3836 33.1911 17.3147 33.4376 17.0958 33.5399ZM17.0518 33.4459C17.2229 33.3659 17.2449 33.1677 17.1591 32.9842C17.0733 32.8007 16.9064 32.689 16.7353 32.769C16.5626 32.8498 16.5413 33.0495 16.6271 33.233C16.7129 33.4164 16.8791 33.5266 17.0518 33.4459ZM17.9791 33.1062L17.4571 31.9899L17.838 31.8118C18.0585 31.7087 18.2263 31.7824 18.3049 31.9505C18.3698 32.0892 18.3272 32.2031 18.2393 32.2762L18.2436 32.2854C18.3567 32.2419 18.5176 32.2888 18.5977 32.46C18.6762 32.628 18.6236 32.8048 18.38 32.9188L17.9791 33.1062ZM18.3323 32.8208C18.5035 32.7408 18.5432 32.6207 18.4905 32.5082C18.4321 32.3833 18.2881 32.3285 18.1401 32.3977L17.8456 32.5354L18.0424 32.9563L18.3323 32.8208ZM18.0785 32.31C18.208 32.2495 18.257 32.1213 18.2001 31.9995C18.1467 31.8854 18.0337 31.8405 17.8826 31.9112L17.6127 32.0374L17.8009 32.4398L18.0785 32.31ZM18.7477 32.4612C18.6684 32.2916 18.7753 32.1627 18.94 32.0688C18.9937 32.039 19.1258 31.9678 19.1648 31.9468L19.128 31.8681C19.0754 31.7556 18.9712 31.7216 18.8401 31.7829C18.7306 31.8341 18.6804 31.9196 18.6957 32.0045L18.5862 32.0557C18.5412 31.9152 18.6281 31.7674 18.8023 31.6859C18.9272 31.6275 19.1297 31.5986 19.2372 31.8283L19.5018 32.3942L19.3969 32.4432L19.3364 32.3137L19.3302 32.3166C19.3302 32.4049 19.2822 32.5194 19.1419 32.585C18.9893 32.6564 18.8234 32.6231 18.7477 32.4612ZM18.8547 32.4168C18.9008 32.5155 19.0054 32.5342 19.1133 32.4838C19.2675 32.4117 19.3097 32.2567 19.2477 32.1241L19.2059 32.0346C19.1657 32.0572 19.037 32.1296 18.9972 32.151C18.8542 32.231 18.81 32.3212 18.8547 32.4168ZM20.0085 32.1779C19.8035 32.2738 19.5824 32.1667 19.4606 31.9061C19.3387 31.6456 19.3983 31.4073 19.6049 31.3106C19.7591 31.2385 19.8723 31.304 19.9379 31.3598L19.9456 31.3561L19.7423 30.9213L19.8487 30.8716L20.3707 31.9879L20.2674 32.0362L20.1967 31.8851L20.1859 31.8902C20.1859 31.9785 20.1612 32.1065 20.0085 32.1779ZM19.9784 32.0774C20.1388 32.0024 20.165 31.8173 20.072 31.6184C19.9797 31.421 19.8238 31.3248 19.6619 31.4005C19.4969 31.4776 19.4775 31.6652 19.5662 31.8549C19.6556 32.0461 19.815 32.1538 19.9784 32.0774Z" fill="white"/>
<path d="M8.68442 23.5772C8.56747 23.4397 8.38378 23.3758 8.19114 23.4659C7.9603 23.5738 7.87456 23.8406 8.02444 24.1611C8.17354 24.48 8.43234 24.5876 8.67315 24.475C8.88738 24.3748 8.97061 24.1568 8.86089 23.9157L8.51712 24.0764L8.4682 23.9718L8.92656 23.7575L8.9747 23.8604C9.11837 24.1677 9.00584 24.4551 8.72518 24.5863C8.40798 24.7346 8.08446 24.5924 7.90818 24.2155C7.7319 23.8385 7.83354 23.4975 8.13911 23.3546C8.39984 23.2327 8.6665 23.3225 8.80731 23.5198L8.68442 23.5772ZM9.76454 24.08L9.40748 24.247L8.84524 23.0446L9.22223 22.8684C9.56766 22.7068 9.87677 22.8355 10.0515 23.2092C10.2286 23.5878 10.1266 23.9108 9.76454 24.08ZM9.47569 24.0856L9.70819 23.9769C10.0138 23.834 10.0821 23.5733 9.93524 23.2635C9.79158 22.9563 9.55425 22.8426 9.26529 22.9778L9.01286 23.0958L9.47569 24.0856Z" fill="white"/>
<rect x="26.559" y="50.1401" width="1.33254" height="2.20137" rx="0.380162" transform="rotate(-26.364 26.559 50.1401)" fill="#FFADAD" stroke="black" stroke-width="0.239675"/>
<path d="M26.9222 50.6309L27.9627 50.1282" stroke="black" stroke-width="0.239675" stroke-linecap="round"/>
<path d="M27.0785 51.0245L28.1189 50.5217" stroke="black" stroke-width="0.239675" stroke-linecap="round"/>
<path d="M27.3519 51.5855L28.3924 51.0828" stroke="black" stroke-width="0.239675" stroke-linecap="round"/>
<path d="M28.1264 51.8691C28.2841 52.1146 28.7885 52.6205 29.5441 52.6801C30.4885 52.7547 31.0733 52.7406 33.2368 50.8029C35.4004 48.8652 50.4944 46.2328 53.5833 48.6031C58.0017 51.9936 52.2723 56.8228 46.4386 54.2415C40.6049 51.6603 45.0577 43.8518 45.0227 42.4038C44.9656 41.8396 45.2781 40.7804 44.6809 39.5265C43.5802 37.2156 37.243 38.1548 37.952 33.7002C38.5192 30.1366 45.3242 27.1063 48.6559 26.0367C49.5875 25.6895 50.5013 25.7114 54.2368 22.1157C55.2572 20.9456 57.5254 18.2472 57.8873 15.5358" stroke="black" stroke-width="0.239675" stroke-linecap="round"/>
<path d="M43.4238 13.5811C44.4625 14.3128 46.3926 16.6773 45.8038 20.2819C45.6552 21.0198 45.5009 22.8634 46.0726 24.3342C46.6443 25.8051 44.7815 27.5616 43.7787 28.256" stroke="black" stroke-width="0.239675" stroke-linecap="round"/>
<path d="M45.5785 27.3297L44.7254 26.7346C44.4763 26.5608 44.1366 26.6006 43.9344 26.8273L42.8092 28.0885C42.5906 28.3335 42.6096 28.7088 42.8518 28.9305L43.056 29.1173C43.2368 29.2829 43.5002 29.3218 43.7211 29.2155L45.4952 28.3625C45.909 28.1635 45.9551 27.5924 45.5785 27.3297Z" fill="#7B7B7B" stroke="black" stroke-width="0.239675" stroke-linecap="round"/>
<circle cx="44.4049" cy="27.6659" r="0.288679" transform="rotate(-1.38534 44.4049 27.6659)" fill="#D9D9D9"/>
<path d="M56.9472 8.93812C56.621 7.90986 56.3827 5.47019 58.0387 3.93763" stroke="black" stroke-width="0.239675" stroke-linecap="round"/>
<path d="M39.5538 9.35653C40.6218 10.3133 42.2689 11.5646 43.4301 12.4113C43.734 12.633 43.7782 13.0701 43.5228 13.3462C43.223 13.6703 42.5911 13.6538 42.2604 13.3614C41.1549 12.3838 38.8768 10.6629 37.3085 9.50923C36.9772 9.26556 36.5192 9.3285 36.1689 9.54388C35.6509 9.86238 34.9478 10.0202 34.3444 9.37995C33.515 8.49999 33.9053 7.66487 34.243 7.30941C34.2755 7.27525 34.313 7.24693 34.3526 7.2214L34.6053 7.05847C35.0744 6.75606 35.0789 6.04646 34.9063 5.51572C34.801 5.1919 34.7997 4.88404 34.8335 4.67373C34.8447 4.60426 34.8729 4.53645 34.9105 4.477C36.3708 2.16914 40.4031 5.68123 40.5038 6.89245C40.5438 7.37354 40.2528 7.72462 39.8682 7.96904C39.3609 8.29143 39.1061 8.95546 39.5538 9.35653Z" fill="#7B7B7B" stroke="black" stroke-width="0.239675" stroke-linecap="round"/>
<ellipse cx="34.7502" cy="8.69211" rx="0.502181" ry="0.691845" transform="rotate(-35.5294 34.7502 8.69211)" fill="black"/>
<path d="M36.1582 4.42383C36.9624 4.5963 38.7922 5.3647 39.6779 7.05852" stroke="black" stroke-width="0.239675" stroke-linecap="round"/>
<path fill-rule="evenodd" clip-rule="evenodd" d="M61.6478 30.5165C61.9 30.5356 62.0711 30.7813 62.0017 31.0245L61.19 33.8661C60.7431 33.6572 60.1021 33.7982 59.6114 34.2533C59.0099 34.811 58.8618 35.6292 59.2806 36.0808C59.6993 36.5325 60.5264 36.4465 61.1279 35.8888C61.4369 35.6023 61.6262 35.247 61.6805 34.908C61.7204 34.864 61.7511 34.8105 61.7685 34.7495L62.7699 31.2439C62.9783 30.5144 62.4648 29.7772 61.7083 29.7198L57.7186 29.4171C57.1212 29.3717 56.5953 29.7726 56.4498 30.3365C56.1527 31.4876 55.8119 32.382 55.5762 32.9117C55.2803 32.8919 54.9387 33.0164 54.6609 33.2741C54.2058 33.696 54.0938 34.3151 54.4106 34.6568C54.7274 34.9985 55.3532 34.9334 55.8082 34.5115C56.1493 34.1953 56.2976 33.7683 56.2172 33.4304C56.4778 32.8798 56.8809 31.8632 57.2234 30.5361C57.2764 30.3306 57.4633 30.1989 57.6582 30.2137L61.6478 30.5165Z" fill="#FC4646"/>
<path d="M62.0017 31.0245L62.1169 31.0574V31.0574L62.0017 31.0245ZM61.6478 30.5165L61.6387 30.6359L61.6478 30.5165ZM61.19 33.8661L61.1392 33.9747L61.2666 34.0342L61.3052 33.899L61.19 33.8661ZM59.6114 34.2533L59.6928 34.3412L59.6114 34.2533ZM59.2806 36.0808L59.1927 36.1623L59.2806 36.0808ZM61.1279 35.8888L61.2093 35.9767L61.1279 35.8888ZM61.6805 34.908L61.5917 34.8275L61.5678 34.8539L61.5622 34.8891L61.6805 34.908ZM61.7685 34.7495L61.6533 34.7166L61.7685 34.7495ZM62.7699 31.2439L62.6546 31.211V31.211L62.7699 31.2439ZM61.7083 29.7198L61.7173 29.6003L61.7083 29.7198ZM57.7186 29.4171L57.7277 29.2976L57.7186 29.4171ZM56.4498 30.3365L56.5658 30.3664L56.4498 30.3365ZM55.5762 32.9117L55.5682 33.0313L55.6517 33.0369L55.6857 32.9604L55.5762 32.9117ZM54.6609 33.2741L54.5794 33.1862L54.6609 33.2741ZM55.8082 34.5115L55.8897 34.5994H55.8897L55.8082 34.5115ZM56.2172 33.4304L56.1089 33.3792L56.0909 33.4172L56.1006 33.4582L56.2172 33.4304ZM57.2234 30.5361L57.3394 30.566V30.566L57.2234 30.5361ZM57.6582 30.2137L57.6491 30.3332H57.6491L57.6582 30.2137ZM62.1169 31.0574C62.2072 30.7413 61.9847 30.4218 61.6569 30.397L61.6387 30.6359C61.8153 30.6493 61.9351 30.8213 61.8864 30.9916L62.1169 31.0574ZM61.3052 33.899L62.1169 31.0574L61.8864 30.9916L61.0747 33.8332L61.3052 33.899ZM61.2407 33.7575C60.7368 33.522 60.0447 33.688 59.5299 34.1654L59.6928 34.3412C60.1596 33.9084 60.7494 33.7924 61.1392 33.9747L61.2407 33.7575ZM59.5299 34.1654C59.212 34.4602 59.0104 34.8269 58.9455 35.1855C58.8805 35.5442 58.952 35.9027 59.1927 36.1623L59.3684 35.9994C59.1904 35.8074 59.1265 35.531 59.1813 35.2282C59.2361 34.9253 59.4093 34.6041 59.6928 34.3412L59.5299 34.1654ZM59.1927 36.1623C59.4334 36.422 59.7856 36.5202 60.1481 36.4825C60.5106 36.4448 60.8914 36.2715 61.2093 35.9767L61.0464 35.8009C60.7629 36.0638 60.4294 36.2123 60.1233 36.2441C59.8173 36.2759 59.5465 36.1914 59.3684 35.9994L59.1927 36.1623ZM61.2093 35.9767C61.5359 35.6738 61.7399 35.295 61.7988 34.927L61.5622 34.8891C61.5125 35.199 61.3378 35.5307 61.0464 35.8009L61.2093 35.9767ZM61.6533 34.7166C61.641 34.7595 61.6196 34.7968 61.5917 34.8275L61.7692 34.9886C61.8212 34.9312 61.8611 34.8615 61.8837 34.7824L61.6533 34.7166ZM62.6546 31.211L61.6533 34.7166L61.8837 34.7824L62.8851 31.2768L62.6546 31.211ZM61.6992 29.8393C62.3801 29.891 62.8422 30.5544 62.6546 31.211L62.8851 31.2768C63.1143 30.4743 62.5495 29.6635 61.7173 29.6003L61.6992 29.8393ZM57.7096 29.5366L61.6992 29.8393L61.7173 29.6003L57.7277 29.2976L57.7096 29.5366ZM56.5658 30.3664C56.6975 29.8561 57.1727 29.4958 57.7096 29.5366L57.7277 29.2976C57.0697 29.2476 56.4931 29.6891 56.3337 30.3065L56.5658 30.3664ZM55.6857 32.9604C55.924 32.4248 56.2671 31.5241 56.5658 30.3664L56.3337 30.3065C56.0384 31.451 55.6998 32.3392 55.4667 32.863L55.6857 32.9604ZM55.5842 32.7921C55.2504 32.7698 54.8776 32.9097 54.5794 33.1862L54.7424 33.362C54.9999 33.1232 55.3101 33.014 55.5682 33.0313L55.5842 32.7921ZM54.5794 33.1862C54.3347 33.4131 54.1787 33.6961 54.1284 33.9742C54.078 34.2523 54.133 34.5336 54.3227 34.7383L54.4985 34.5753C54.3714 34.4383 54.324 34.2391 54.3642 34.0169C54.4044 33.7945 54.532 33.557 54.7424 33.362L54.5794 33.1862ZM54.3227 34.7383C54.5125 34.9429 54.7888 35.0189 55.07 34.9897C55.3511 34.9605 55.645 34.8263 55.8897 34.5994L55.7267 34.4236C55.5164 34.6186 55.2699 34.7279 55.0452 34.7513C54.8205 34.7747 54.6255 34.7123 54.4985 34.5753L54.3227 34.7383ZM55.8897 34.5994C56.254 34.2616 56.4266 33.7928 56.3338 33.4027L56.1006 33.4582C56.1686 33.7439 56.0445 34.1289 55.7267 34.4236L55.8897 34.5994ZM57.1073 30.5061C56.7667 31.8262 56.3661 32.8356 56.1089 33.3792L56.3256 33.4817C56.5894 32.924 56.9951 31.9003 57.3394 30.566L57.1073 30.5061ZM57.6672 30.0942C57.4125 30.0749 57.1744 30.2464 57.1073 30.5061L57.3394 30.566C57.3784 30.4148 57.5141 30.3229 57.6491 30.3332L57.6672 30.0942ZM61.6569 30.397L57.6672 30.0942L57.6491 30.3332L61.6387 30.6359L61.6569 30.397Z" fill="black"/>
<path fill-rule="evenodd" clip-rule="evenodd" d="M49.8583 2.86213C49.0836 2.26832 48.5586 1.9275 48.2151 1.74418L49.5905 6.22378C49.6056 6.27271 49.6107 6.32232 49.6072 6.37047C49.6505 6.65643 49.6396 6.98371 49.5641 7.3209C49.3564 8.24821 48.7388 8.89933 48.1846 8.77523C47.6304 8.65112 47.3495 7.79879 47.5572 6.87149C47.7134 6.17388 48.1016 5.63258 48.5203 5.46005L47.2971 1.47647L47.2966 1.47469L47.2965 1.47469C47.2932 1.46436 47.2772 1.41493 47.2687 1.36722C47.2582 1.30792 47.2495 1.20787 47.2913 1.0963C47.337 0.974064 47.4275 0.879045 47.5426 0.824686C47.6473 0.775273 47.7534 0.767703 47.8375 0.772437C48.0016 0.781662 48.1871 0.844151 48.3882 0.937652C48.8004 1.12927 49.4211 1.52044 50.3443 2.22804C50.5194 2.36225 50.5526 2.61299 50.4184 2.78809C50.2842 2.96319 50.0334 2.99634 49.8583 2.86213Z" fill="#FC4646"/>
<path d="M48.2151 1.74418L48.2715 1.63846L48.0153 1.50174L48.1005 1.77936L48.2151 1.74418ZM49.8583 2.86213L49.7854 2.95725L49.7854 2.95725L49.8583 2.86213ZM49.5905 6.22378L49.476 6.25895L49.5905 6.22378ZM49.6072 6.37047L49.4876 6.36161L49.4866 6.37508L49.4887 6.38843L49.6072 6.37047ZM49.5641 7.3209L49.4471 7.29472L49.5641 7.3209ZM48.1846 8.77523L48.1584 8.89217L48.1584 8.89217L48.1846 8.77523ZM47.5572 6.87149L47.6741 6.89767L47.5572 6.87149ZM48.5203 5.46005L48.566 5.57085L48.6669 5.52926L48.6349 5.42488L48.5203 5.46005ZM47.2971 1.47647L47.4117 1.44129L47.4112 1.4398L47.2971 1.47647ZM47.2966 1.47469L47.4108 1.43799L47.4089 1.43305L47.2966 1.47469ZM47.2965 1.47469L47.1824 1.51164L47.1842 1.51633L47.2965 1.47469ZM47.2687 1.36722L47.1507 1.38816L47.1507 1.38816L47.2687 1.36722ZM47.2913 1.0963L47.179 1.05433L47.179 1.05433L47.2913 1.0963ZM47.5426 0.824686L47.4915 0.716321L47.4915 0.716321L47.5426 0.824686ZM47.8375 0.772437L47.8308 0.892086L47.8308 0.892086L47.8375 0.772437ZM48.3882 0.937652L48.4388 0.828984L48.3882 0.937652ZM50.3443 2.22804L50.2714 2.32316L50.2714 2.32316L50.3443 2.22804ZM50.4184 2.78809L50.3233 2.71519L50.4184 2.78809ZM48.1586 1.84991C48.4939 2.02881 49.013 2.3652 49.7854 2.95725L49.9312 2.76702C49.1542 2.17143 48.6233 1.82619 48.2715 1.63846L48.1586 1.84991ZM49.7051 6.1886L48.3296 1.70901L48.1005 1.77936L49.476 6.25895L49.7051 6.1886ZM49.7267 6.37933C49.7313 6.31656 49.7246 6.25201 49.7051 6.1886L49.476 6.25895C49.4866 6.29342 49.4901 6.32808 49.4876 6.36161L49.7267 6.37933ZM49.4887 6.38843C49.5296 6.65856 49.5197 6.97084 49.4471 7.29472L49.681 7.34709C49.7595 6.99658 49.7714 6.6543 49.7256 6.35251L49.4887 6.38843ZM49.4471 7.29472C49.3472 7.7409 49.1497 8.11491 48.9174 8.35987C48.683 8.60691 48.4305 8.70747 48.2108 8.65829L48.1584 8.89217C48.493 8.96708 48.8263 8.80413 49.0913 8.52481C49.3582 8.24341 49.5733 7.82821 49.681 7.34709L49.4471 7.29472ZM48.2108 8.65829C47.9912 8.6091 47.8056 8.41042 47.699 8.08704C47.5933 7.76638 47.5742 7.34386 47.6741 6.89767L47.4402 6.8453C47.3325 7.32642 47.35 7.79371 47.4714 8.16207C47.5919 8.52771 47.8239 8.81725 48.1584 8.89217L48.2108 8.65829ZM47.6741 6.89767C47.8258 6.22007 48.1977 5.72259 48.566 5.57085L48.4746 5.34925C48.0055 5.54257 47.6009 6.1277 47.4402 6.8453L47.6741 6.89767ZM47.1826 1.51165L48.4057 5.49523L48.6349 5.42488L47.4117 1.4413L47.1826 1.51165ZM47.1825 1.51137L47.183 1.51314L47.4112 1.4398L47.4106 1.43802L47.1825 1.51137ZM47.1842 1.51633L47.1842 1.51634L47.4089 1.43305L47.4089 1.43304L47.1842 1.51633ZM47.1507 1.38816C47.1608 1.44481 47.1792 1.50119 47.1825 1.51161L47.4106 1.43776C47.4072 1.42753 47.3936 1.38506 47.3867 1.34627L47.1507 1.38816ZM47.179 1.05433C47.127 1.19349 47.1382 1.31737 47.1507 1.38816L47.3867 1.34627C47.3782 1.29848 47.3721 1.22225 47.4035 1.13827L47.179 1.05433ZM47.4915 0.716321C47.3492 0.783506 47.2361 0.901763 47.179 1.05433L47.4035 1.13827C47.4379 1.04637 47.5058 0.974585 47.5938 0.933051L47.4915 0.716321ZM47.8443 0.652788C47.7481 0.64738 47.6202 0.655531 47.4915 0.716321L47.5938 0.933051C47.6743 0.895016 47.7586 0.888026 47.8308 0.892086L47.8443 0.652788ZM48.4388 0.828984C48.233 0.73333 48.0311 0.663292 47.8443 0.652788L47.8308 0.892086C47.9721 0.900033 48.1412 0.954973 48.3377 1.04632L48.4388 0.828984ZM50.4172 2.13293C49.492 1.4238 48.863 1.02622 48.4388 0.828984L48.3377 1.04632C48.7378 1.23232 49.3502 1.61709 50.2714 2.32316L50.4172 2.13293ZM50.5135 2.86099C50.688 2.63336 50.6449 2.3074 50.4172 2.13293L50.2714 2.32316C50.394 2.4171 50.4172 2.59262 50.3233 2.71519L50.5135 2.86099ZM49.7854 2.95725C50.0131 3.13172 50.339 3.08862 50.5135 2.86099L50.3233 2.71519C50.2293 2.83776 50.0538 2.86097 49.9312 2.76702L49.7854 2.95725Z" fill="black"/>
</svg>
