<svg width="33" height="50" viewBox="0 0 33 50" fill="none" xmlns="http://www.w3.org/2000/svg">
<path d="M3.38171 6.05305C4.06006 4.77662 6.89605 4.28038 8.22925 4.19181C7.83401 3.27153 7.4071 1.47338 8.86142 1.64305C10.3157 1.81272 12.1336 2.40042 12.8608 2.67306C12.9517 2.15799 13.5516 1.4066 15.224 2.52157C15.4159 1.9358 16.133 0.82487 17.4661 1.06726C18.7992 1.30964 19.6577 1.55211 19.9203 1.64305C20.8595 2.08747 22.8956 3.02481 23.5258 3.21872C24.156 3.41263 25.1619 4.34985 25.586 4.79423C26.0708 5.2386 27.1494 6.16371 27.5857 6.30914C28.022 6.45457 29.1814 7.92504 29.7066 8.6421C30.0096 9.11677 30.5974 10.2903 30.5246 11.1872C30.4337 12.3082 31.4942 11.9143 31.4639 12.4597C31.4336 13.005 33.1606 13.9443 29.2824 16.8226C28.9354 17.2719 28.2747 17.8553 27.4984 18.009C27.6699 18.2111 27.8077 18.4679 27.8887 18.7918C28.228 20.1492 27.1413 20.9329 26.5556 21.1551C26.701 23.5547 25.6062 26.3765 25.0407 27.4874C24.9195 28.0435 24.4044 29.331 23.3137 30.0325C22.2229 30.7339 21.7773 31.2953 21.6908 31.4883C19.5861 35.6978 23.5479 38.5556 25.792 39.4584C28.3713 40.8254 33.3597 44.6893 32.6787 49.2082L0.178711 48.2797C0.550133 45.6178 3.36614 43.1984 4.72772 42.3214C11.4621 39.4739 12.2465 34.5361 11.7968 32.4232C11.7535 31.8724 11.303 30.4478 9.84745 29.1557C8.39191 27.8635 7.88855 26.2794 7.81882 25.6489C8.31745 22.1087 7.81882 25.0506 6.5224 22.1585C5.98802 20.9665 6.11904 20.1203 6.48985 19.5506C6.04199 19.5939 5.46363 19.5254 4.72772 19.2665C2.57356 18.5086 2.36747 17.1224 2.5337 16.5241C4.68775 13.6121 4.8939 11.8869 4.72772 11.3883C3.9964 10.1417 2.70336 7.32949 3.38171 6.05305Z" fill="#FFEEEE"/>
<path d="M0.178711 48.2388C0.546549 45.5769 3.33538 43.1575 4.68382 42.2805C7.66531 41.0075 9.57523 39.3954 10.6188 37.7261C11.9369 40.0325 14.5231 42.1725 23.3853 38.0531C28.265 40.5735 33.3554 44.6886 32.6811 49.2076L0.178711 48.2388Z" fill="#FC4646"/>
<path d="M23.3915 38.0531C14.5293 42.1725 11.9431 40.0325 10.625 37.7261" stroke="black" stroke-width="0.260716" stroke-linecap="round"/>
<path d="M23.3915 38.0531C14.5293 42.1725 11.9431 40.0325 10.625 37.7261" stroke="black" stroke-opacity="0.2" stroke-width="0.260716" stroke-linecap="round"/>
<path d="M4.56078 5.326C5.23913 4.04957 8.07511 3.55332 9.40831 3.46476C9.01307 2.54447 8.58617 0.746325 10.0405 0.915995C11.4948 1.08566 13.3127 1.67337 14.0398 1.94601C14.1307 1.43094 14.7306 0.679545 16.4031 1.79452C16.595 1.20875 17.3121 0.0978191 18.6452 0.340205C19.9783 0.582591 20.8367 0.825059 21.0993 0.915995C22.0386 1.36042 24.0746 2.29776 24.7048 2.49167C25.335 2.68558 26.3409 3.6228 26.7651 4.06718C27.2499 4.51155 28.3285 5.43666 28.7648 5.58209C29.2011 5.72752 30.3605 7.19799 30.8857 7.91505C31.1886 8.38972 31.7764 9.56327 31.7037 10.4601C31.6128 11.5811 32.6732 11.1873 32.643 11.7326C32.6127 12.278 34.3397 13.2172 30.4615 16.0956C30.1145 16.5448 29.4537 17.1283 28.6775 17.282C28.8489 17.484 28.9868 17.7408 29.0678 18.0648C29.4071 19.4221 28.3204 20.2059 27.7346 20.428C27.9493 20.0549 28.5768 17.8839 26.3998 17.6092C21.7896 10.4084 15.7581 18.8173 11.9017 16.6105C7.77833 14.251 9.74824 17.1242 8.99789 17.8913C8.86508 18.4231 8.06094 19.2974 5.90678 18.5395C3.75262 17.7816 3.54654 16.3954 3.71276 15.797C5.86682 12.8851 6.07296 11.1598 5.90678 10.6612C5.17547 9.41467 3.88243 6.60244 4.56078 5.326Z" fill="#FFC0C0"/>
<path d="M25.589 17.3375C26.2151 17.2567 27.5523 17.4345 27.8916 18.7918C28.231 20.1492 27.1443 20.9329 26.5585 21.1551C26.7039 23.5547 25.6092 26.3765 25.0436 27.4874C24.9224 28.0435 24.4073 29.331 23.3166 30.0325C22.2259 30.7339 21.7802 31.2953 21.6938 31.4883C19.589 35.6978 23.5509 38.5556 25.7949 39.4584C28.3742 40.8254 33.3626 44.6893 32.6817 49.2082L0.181641 48.2797C0.553063 45.6178 3.36907 43.1984 4.73064 42.3214C11.465 39.4739 12.2494 34.5361 11.7998 32.4232C11.7565 31.8724 11.3059 30.4478 9.85038 29.1557C8.39484 27.8635 7.89148 26.2794 7.82175 25.6489C8.32037 22.1087 7.82175 25.0506 6.52533 22.1585C5.48819 19.8449 6.95747 18.8344 7.82175 18.6183C7.68895 19.1502 6.8848 20.0244 4.73064 19.2665C2.57649 18.5086 2.3704 17.1224 2.53663 16.5241C4.69068 13.6121 4.89683 11.8869 4.73064 11.3883C3.99933 10.1417 2.70629 7.32949 3.38464 6.05305C4.06299 4.77662 6.89898 4.28038 8.23218 4.19181C7.83694 3.27153 7.41003 1.47338 8.86435 1.64305C10.3187 1.81272 12.1366 2.40042 12.8637 2.67306C12.9546 2.15799 13.5545 1.4066 15.227 2.52157C15.4189 1.9358 16.1359 0.82487 17.469 1.06726C18.8022 1.30964 19.6606 1.55211 19.9232 1.64305C20.8624 2.08747 22.8985 3.02481 23.5287 3.21872C24.1589 3.41263 25.1648 4.34985 25.589 4.79423C26.0737 5.2386 27.1523 6.16371 27.5886 6.30914C28.0249 6.45457 29.1844 7.92504 29.7095 8.6421C30.0125 9.11677 30.6003 10.2903 30.5276 11.1872C30.4367 12.3082 31.4971 11.9143 31.4668 12.4597C31.4365 13.005 33.1635 13.9443 29.2853 16.8226" stroke="black" stroke-width="0.243049"/>
<ellipse cx="12.3455" cy="19.3996" rx="0.665775" ry="1.02853" fill="#2A2A2A"/>
<ellipse cx="19.0007" cy="19.3996" rx="0.665775" ry="1.02853" fill="#2A2A2A"/>
<path d="M15.0194 21.1431C15.1569 21.4457 15.3495 22.1997 15.0194 22.7943C14.6892 23.3888 15.1296 23.3998 15.3911 23.331" stroke="black" stroke-width="0.243049" stroke-linecap="round"/>
<path d="M14.0742 25.8686C14.9086 26.2786 16.9357 26.7405 18.3687 25.3076" stroke="black" stroke-width="0.243049" stroke-linecap="round"/>
<path d="M10.4238 11.2937C10.7151 13.4478 12.1279 14.8782 14.0839 15.1577C14.912 15.2761 15.5189 14.6264 15.9523 13.6831C17.1336 11.1121 15.0708 5.77168 13.1929 7.88806V7.88806C11.5771 9.70904 17.0641 13.2758 19.0166 13.2758C20.9692 13.2758 22.6555 10.2505 19.0166 8.34611C15.3777 6.44174 21.768 13.5421 27.4482 11.767" stroke="black" stroke-width="0.243049" stroke-linecap="round"/>
</svg>
