<svg width="26" height="27" viewBox="0 0 26 27" fill="none" xmlns="http://www.w3.org/2000/svg">
<mask id="mask0_136_5269" style="mask-type:alpha" maskUnits="userSpaceOnUse" x="0" y="0" width="26" height="27">
<rect y="0.337769" width="26" height="26" fill="#D9D9D9"/>
</mask>
<g mask="url(#mask0_136_5269)">
<path d="M11.7813 21.2461L4.63129 14.0961C4.52296 13.9878 4.44604 13.8704 4.40054 13.744C4.35576 13.6176 4.33337 13.4822 4.33337 13.3378C4.33337 13.1933 4.35576 13.0579 4.40054 12.9315C4.44604 12.8051 4.52296 12.6878 4.63129 12.5794L11.7813 5.42944C11.9799 5.23083 12.228 5.12683 12.5255 5.11744C12.8238 5.10878 13.0813 5.21278 13.298 5.42944C13.5146 5.62805 13.6277 5.87614 13.637 6.17369C13.6457 6.47197 13.5417 6.72944 13.325 6.94611L8.01671 12.2544H20.123C20.4299 12.2544 20.6874 12.3581 20.8954 12.5654C21.1027 12.7734 21.2063 13.0308 21.2063 13.3378C21.2063 13.6447 21.1027 13.9018 20.8954 14.1091C20.6874 14.3171 20.4299 14.4211 20.123 14.4211H8.01671L13.325 19.7294C13.5237 19.9281 13.6277 20.1808 13.637 20.4878C13.6457 20.7947 13.5417 21.0475 13.325 21.2461C13.1264 21.4628 12.8737 21.5711 12.5667 21.5711C12.2598 21.5711 11.998 21.4628 11.7813 21.2461Z" fill="#FC4646"/>
</g>
</svg>
