<svg width="23" height="23" viewBox="0 0 23 23" fill="#2A2A2A" xmlns="http://www.w3.org/2000/svg">
<g clip-path="url(#clip0_136_6067)">
<path d="M11.9668 2.15588C17.0296 2.15588 21.1335 6.2598 21.1335 11.3225C21.1335 16.3853 17.0296 20.4892 11.9668 20.4892C6.90409 20.4892 2.80017 16.3853 2.80017 11.3225C2.80017 6.2598 6.90409 2.15588 11.9668 2.15588ZM10.0226 8.08122C9.85801 7.91507 9.63615 7.8181 9.40242 7.81017C9.16869 7.80224 8.94077 7.88395 8.76531 8.03856C8.58984 8.19317 8.48011 8.409 8.45857 8.64187C8.43702 8.87474 8.5053 9.10704 8.64942 9.29122L8.72642 9.3783L10.6698 11.3216L8.72642 13.2668C8.56027 13.4314 8.46331 13.6532 8.45538 13.887C8.44745 14.1207 8.52915 14.3486 8.68376 14.5241C8.83838 14.6995 9.05421 14.8093 9.28708 14.8308C9.51995 14.8524 9.75224 14.7841 9.93642 14.64L10.0226 14.5639L11.9668 12.6187L13.9111 14.5639C14.0757 14.73 14.2975 14.827 14.5313 14.8349C14.765 14.8429 14.9929 14.7612 15.1684 14.6065C15.3438 14.4519 15.4536 14.2361 15.4751 14.0032C15.4966 13.7704 15.4284 13.5381 15.2843 13.3539L15.2082 13.2668L13.263 11.3225L15.2082 9.3783C15.3743 9.21372 15.4713 8.99186 15.4792 8.75813C15.4871 8.5244 15.4054 8.29648 15.2508 8.12102C15.0962 7.94556 14.8804 7.83582 14.6475 7.81428C14.4146 7.79274 14.1823 7.86101 13.9982 8.00513L13.9111 8.08122L11.9668 10.0264L10.0226 8.08122Z"/>
</g>
<defs>
<clipPath id="clip0_136_6067">
<rect width="22" height="22" fill="white" transform="translate(0.966797 0.32251)"/>
</clipPath>
</defs>
</svg>
