<svg width="93" height="30" viewBox="0 0 93 30" fill="none" xmlns="http://www.w3.org/2000/svg">
<path d="M92.61 11.1107C92.6564 11.1571 92.6796 11.2036 92.6564 11.2732C92.4474 11.8072 92.1921 12.1323 91.9134 12.2948C91.7974 12.3644 91.7045 12.4109 91.5884 12.4109C91.4723 12.4109 91.3562 12.3877 91.2401 12.3644C91.1241 12.3412 91.0312 12.3412 90.9383 12.3412C90.3579 12.318 89.7775 12.2716 89.197 12.1787C89.7078 12.5502 90.1722 12.9449 90.6133 13.3628C90.6829 13.4324 90.7526 13.5021 90.8455 13.5717C90.9383 13.6414 91.0312 13.7343 91.1241 13.8039C91.1937 13.8968 91.2634 14.0129 91.2866 14.129C91.4027 14.454 91.3562 14.8951 91.1473 15.4291C91.1241 15.4988 91.0544 15.522 90.9848 15.522C90.4275 15.4988 90.0329 15.3595 89.7775 15.1041C89.6846 15.0344 89.6149 14.9416 89.5917 14.8255C89.5453 14.7094 89.4989 14.5933 89.4756 14.4772C89.4524 14.3611 89.4292 14.2683 89.406 14.1522C89.2202 13.595 89.0577 13.0145 88.9416 12.3877C88.8256 13.0145 88.663 13.595 88.4773 14.1522C88.4541 14.2683 88.4309 14.3611 88.4076 14.4772C88.3844 14.5933 88.338 14.7094 88.3148 14.8255C88.2683 14.9416 88.1987 15.0344 88.1058 15.1041C87.8504 15.3595 87.4557 15.4988 86.8985 15.522C86.8289 15.522 86.7592 15.4988 86.736 15.4291C86.527 14.8951 86.4806 14.454 86.5967 14.129C86.6199 14.0129 86.6896 13.8968 86.7824 13.8039C86.8521 13.7343 86.945 13.6414 87.0378 13.5717C87.1307 13.5021 87.2003 13.4324 87.27 13.3628C87.7111 12.9449 88.1755 12.5502 88.6863 12.1787C88.1058 12.2716 87.5254 12.318 86.945 12.3412C86.8521 12.3412 86.7592 12.3412 86.6431 12.3644C86.527 12.3877 86.411 12.4109 86.2949 12.4109C86.1788 12.4109 86.0859 12.3644 85.9698 12.2948C85.6912 12.1323 85.4358 11.8072 85.2269 11.2732C85.2037 11.2036 85.2269 11.1571 85.2733 11.1107C85.668 10.716 86.0395 10.5303 86.3645 10.5071C86.4806 10.4838 86.5967 10.5071 86.7128 10.5535C86.8057 10.6232 86.8985 10.6696 86.9914 10.7392C87.0843 10.8089 87.1771 10.8553 87.2468 10.9018C87.7808 11.1804 88.2916 11.5054 88.7791 11.8537C88.5702 11.3429 88.3844 10.8321 88.2219 10.3213C88.1987 10.2285 88.1755 10.1356 88.129 10.0659C88.0826 9.94985 88.0594 9.85698 88.0362 9.7409C88.013 9.64803 88.013 9.55516 88.0594 9.43907C88.129 9.16047 88.4076 8.88186 88.8488 8.58004C88.9184 8.55682 88.9649 8.55682 89.0345 8.58004C89.4756 8.88186 89.7542 9.16047 89.8239 9.43907C89.8703 9.55516 89.8935 9.64803 89.8703 9.7409C89.8471 9.85698 89.8007 9.94985 89.7542 10.0659C89.7078 10.1356 89.6846 10.2285 89.6614 10.3213C89.4989 10.8321 89.3131 11.3429 89.1042 11.8537C89.5917 11.5054 90.1025 11.1804 90.6365 10.9018C90.7062 10.8553 90.799 10.8089 90.8919 10.7392C90.9848 10.6696 91.0776 10.6232 91.1937 10.5535C91.2866 10.5071 91.4027 10.4838 91.5188 10.5071C91.8438 10.5303 92.2153 10.716 92.61 11.1107Z" fill="#FC4646"/>
<path d="M81.9937 25.0971L81.9977 25.0903L82.0012 25.0833C82.0913 24.903 82.1343 24.6938 82.0612 24.4745C81.9955 24.2774 81.8604 24.1065 81.6572 24.0049C81.4495 23.901 81.2403 23.9042 81.0484 23.9681C80.8539 24.033 80.685 24.1653 80.5829 24.364C79.1127 26.871 77.0778 28.1112 74.5106 28.1112C72.6268 28.1112 71.0187 27.4411 69.6957 26.1181C68.3723 24.7947 67.7025 23.1865 67.7025 21.3264C67.7025 19.4662 68.3723 17.858 69.6957 16.5346C71.0187 15.2116 72.6268 14.5415 74.5106 14.5415C77.0778 14.5415 79.1127 15.7817 80.5829 18.2887C80.685 18.4874 80.8539 18.6197 81.0484 18.6846C81.2403 18.7485 81.4495 18.7517 81.6572 18.6478C81.8604 18.5462 81.9955 18.3753 82.0612 18.1782C82.1343 17.9589 82.0913 17.7497 82.0012 17.5694L81.9977 17.5624L81.9937 17.5556C80.2134 14.4935 77.6985 12.9503 74.5106 12.9503C72.1922 12.9503 70.2255 13.766 68.5772 15.3904L68.5772 15.3904L68.5759 15.3917C66.9273 17.0404 66.1113 19.0077 66.1113 21.3264C66.1113 23.6444 66.9269 25.6124 68.5766 27.2384C70.2251 28.8867 72.1922 29.7024 74.5106 29.7024C77.6985 29.7024 80.2134 28.1592 81.9937 25.0971Z" fill="#FC4646" stroke="#FC4646" stroke-width="0.5"/>
<path d="M61.5103 15.3917L61.509 15.3904C59.8601 13.7655 57.87 12.9503 55.5524 12.9503C53.2347 12.9503 51.2446 13.7655 49.5958 15.3904L49.5958 15.3904L49.5945 15.3917C47.9472 17.039 47.1067 19.0058 47.1067 21.3264C47.1067 23.6463 47.9468 25.6137 49.5951 27.2384C51.2442 28.8872 53.2348 29.7024 55.5524 29.7024C55.7623 29.7024 55.9408 29.6265 56.1006 29.4666C56.1769 29.3903 56.2388 29.3053 56.28 29.2046C56.3212 29.1041 56.3364 29.0009 56.3364 28.8952C56.3364 28.6852 56.2604 28.5067 56.1006 28.3469C55.9408 28.1871 55.7623 28.1112 55.5524 28.1112C53.7333 28.1112 52.1926 27.5071 50.9166 26.3207C49.7053 25.1944 48.9781 23.7888 48.7525 22.1336H63.1676C63.2733 22.1336 63.3765 22.1184 63.4771 22.0772C63.5778 22.036 63.6628 21.9741 63.7391 21.8978C63.8154 21.8215 63.8773 21.7365 63.9185 21.6358C63.9596 21.5352 63.9748 21.432 63.9748 21.3264C63.9748 19.0077 63.1589 17.0404 61.5103 15.3917ZM62.329 20.5191H48.7525C48.9781 18.8639 49.7053 17.4583 50.9166 16.332C52.1926 15.1456 53.7333 14.5415 55.5524 14.5415C57.3478 14.5415 58.8887 15.1453 60.1649 16.332C61.3763 17.4583 62.1035 18.8639 62.329 20.5191Z" fill="#FC4646" stroke="#FC4646" stroke-width="0.5"/>
<path d="M44.6534 1.5985C44.5191 1.3836 44.3369 1.20239 44.0467 1.20239C43.7565 1.20239 43.5743 1.3836 43.44 1.5985C43.2903 1.83799 43.2395 2.12192 43.2395 2.4043V28.5005C43.2395 28.7829 43.2903 29.0668 43.44 29.3063C43.5743 29.5212 43.7565 29.7024 44.0467 29.7024C44.3369 29.7024 44.5191 29.5212 44.6534 29.3063C44.8031 29.0668 44.8539 28.7829 44.8539 28.5005V2.4043C44.8539 2.12192 44.8031 1.83799 44.6534 1.5985Z" fill="#FC4646" stroke="#FC4646" stroke-width="0.5"/>
<path d="M40.7865 1.5985C40.6522 1.3836 40.47 1.20239 40.1798 1.20239C39.8896 1.20239 39.7074 1.3836 39.5731 1.5985C39.4234 1.83799 39.3726 2.12192 39.3726 2.4043V28.5005C39.3726 28.7829 39.4234 29.0668 39.5731 29.3063C39.7074 29.5212 39.8896 29.7024 40.1798 29.7024C40.47 29.7024 40.6522 29.5212 40.7865 29.3063C40.9361 29.0668 40.987 28.7829 40.987 28.5005V2.4043C40.987 2.12192 40.9361 1.83799 40.7865 1.5985Z" fill="#FC4646" stroke="#FC4646" stroke-width="0.5"/>
<path d="M34.2619 15.393L34.2619 15.393L34.2593 15.3904C32.6111 13.766 30.6444 12.9503 28.326 12.9503C26.0079 12.9503 24.0404 13.7659 22.4146 15.3917C20.7659 17.0404 19.95 19.0077 19.95 21.3264C19.95 23.6441 20.7653 25.6118 22.4145 27.2378C24.0405 28.887 26.0082 29.7024 28.326 29.7024C30.6447 29.7024 32.612 28.8865 34.2606 27.2378C35.8865 25.612 36.702 23.6445 36.702 21.3264C36.702 19.0079 35.8863 17.0413 34.2619 15.393ZM33.1177 26.1181C31.7944 27.4414 30.1861 28.1112 28.326 28.1112C26.4658 28.1112 24.8576 27.4414 23.5343 26.1181C22.2109 24.7947 21.5412 23.1865 21.5412 21.3264C21.5412 19.4662 22.2109 17.858 23.5343 16.5346C24.8576 15.2113 26.4658 14.5415 28.326 14.5415C30.1861 14.5415 31.7944 15.2113 33.1177 16.5346C34.441 17.858 35.1108 19.4662 35.1108 21.3264C35.1108 23.1865 34.441 24.7947 33.1177 26.1181Z" fill="#FC4646" stroke="#FC4646" stroke-width="0.5"/>
<path d="M16.9669 25.0971L16.9708 25.0903L16.9743 25.0833C17.0645 24.903 17.1074 24.6938 17.0343 24.4745C16.9686 24.2774 16.8336 24.1065 16.6304 24.0049C16.4226 23.901 16.2134 23.9042 16.0216 23.9681C15.8271 24.033 15.6581 24.1653 15.5561 24.364C14.0858 26.871 12.0509 28.1112 9.48373 28.1112C7.59991 28.1112 5.99182 27.4411 4.6688 26.1181C3.34545 24.7947 2.67568 23.1865 2.67568 21.3264C2.67568 19.4662 3.34545 17.858 4.6688 16.5346C5.99182 15.2116 7.59991 14.5415 9.48373 14.5415C12.0509 14.5415 14.0858 15.7817 15.5561 18.2887C15.6581 18.4874 15.8271 18.6197 16.0216 18.6846C16.2134 18.7485 16.4226 18.7517 16.6304 18.6478C16.8336 18.5462 16.9686 18.3753 17.0343 18.1782C17.1074 17.9589 17.0645 17.7497 16.9743 17.5694L16.9708 17.5624L16.9669 17.5556C15.1866 14.4935 12.6716 12.9503 9.48373 12.9503C7.16531 12.9503 5.19865 13.766 3.55037 15.3904L3.55036 15.3904L3.54907 15.3917C1.9004 17.0404 1.08447 19.0077 1.08447 21.3264C1.08447 23.6444 1.90003 25.6124 3.54971 27.2384C5.19825 28.8867 7.16536 29.7024 9.48373 29.7024C12.6716 29.7024 15.1866 28.1592 16.9669 25.0971Z" fill="#FC4646" stroke="#FC4646" stroke-width="0.5"/>
</svg>
