<svg width="26" height="27" viewBox="0 0 26 27" fill="none" xmlns="http://www.w3.org/2000/svg">
<mask id="mask0_136_5512" style="mask-type:alpha" maskUnits="userSpaceOnUse" x="0" y="0" width="26" height="27">
<rect y="0.337769" width="26" height="26" fill="#D9D9D9"/>
</mask>
<g mask="url(#mask0_136_5512)">
<path d="M13 22.0045C12.4041 22.0045 11.8943 21.7925 11.4703 21.3686C11.0456 20.9439 10.8333 20.4336 10.8333 19.8378C10.8333 19.242 11.0456 18.7317 11.4703 18.3071C11.8943 17.8831 12.4041 17.6711 13 17.6711C13.5958 17.6711 14.1061 17.8831 14.5307 18.3071C14.9547 18.7317 15.1666 19.242 15.1666 19.8378C15.1666 20.4336 14.9547 20.9439 14.5307 21.3686C14.1061 21.7925 13.5958 22.0045 13 22.0045ZM13 15.5045C12.4041 15.5045 11.8943 15.2921 11.4703 14.8675C11.0456 14.4435 10.8333 13.9336 10.8333 13.3378C10.8333 12.742 11.0456 12.2317 11.4703 11.8071C11.8943 11.3831 12.4041 11.1711 13 11.1711C13.5958 11.1711 14.1061 11.3831 14.5307 11.8071C14.9547 12.2317 15.1666 12.742 15.1666 13.3378C15.1666 13.9336 14.9547 14.4435 14.5307 14.8675C14.1061 15.2921 13.5958 15.5045 13 15.5045ZM13 9.00448C12.4041 9.00448 11.8943 8.79214 11.4703 8.36748C11.0456 7.94353 10.8333 7.43364 10.8333 6.83781C10.8333 6.24198 11.0456 5.73209 11.4703 5.30814C11.8943 4.88348 12.4041 4.67114 13 4.67114C13.5958 4.67114 14.1061 4.88348 14.5307 5.30814C14.9547 5.73209 15.1666 6.24198 15.1666 6.83781C15.1666 7.43364 14.9547 7.94353 14.5307 8.36748C14.1061 8.79214 13.5958 9.00448 13 9.00448Z" fill="#2A2A2A"/>
</g>
</svg>
