<svg width="26" height="27" viewBox="0 0 26 27" fill="#FC4646" xmlns="http://www.w3.org/2000/svg">
<path d="M16.7916 15.6191H15.9358L15.6324 15.3266C16.9324 13.81 17.6041 11.7408 17.2358 9.54163C16.7266 6.52996 14.2133 4.12496 11.1799 3.75663C6.59745 3.19329 2.74078 7.04996 3.30411 11.6325C3.67245 14.6658 6.07745 17.1791 9.08911 17.6883C11.2883 18.0566 13.3574 17.385 14.8741 16.085L15.1666 16.3883V17.2441L19.7708 21.8483C20.2149 22.2925 20.9408 22.2925 21.3849 21.8483C21.8291 21.4041 21.8291 20.6783 21.3849 20.2341L16.7916 15.6191ZM10.2916 15.6191C7.59411 15.6191 5.41661 13.4416 5.41661 10.7441C5.41661 8.04663 7.59411 5.86913 10.2916 5.86913C12.9891 5.86913 15.1666 8.04663 15.1666 10.7441C15.1666 13.4416 12.9891 15.6191 10.2916 15.6191Z" />
</svg>
